<?xml version="1.0" encoding="UTF-8" standalone="no"?>
<svg width="300px" height="293px" viewBox="0 0 300 293" version="1.1" xmlns="http://www.w3.org/2000/svg" xmlns:xlink="http://www.w3.org/1999/xlink">
    <!-- Generator: Sketch 41.2 (35397) - http://www.bohemiancoding.com/sketch -->
    <title>Group 6</title>
    <desc>Created with Sketch.</desc>
    <defs></defs>
    <g id="Page-1" stroke="none" stroke-width="1" fill="none" fill-rule="evenodd">
        <g id="Artboard" fill="#FFFFFF">
            <g id="Page-1">
                <g id="Group-6">
                    <path d="M150,0.563746835 C67.1555556,0.563746835 0,66.0288481 0,146.781873 C0,227.534899 67.1555556,293 150,293 C232.844444,293 300,227.534899 300,146.781873 C300,66.0288481 232.844444,0.563746835 150,0.563746835 M150,4.27260759 C230.666667,4.27260759 296.296296,68.2022405 296.296296,146.781873 C296.296296,225.361506 230.666667,289.291139 150,289.291139 C69.3333333,289.291139 3.7037037,225.361506 3.7037037,146.781873 C3.7037037,68.2022405 69.3333333,4.27260759 150,4.27260759" id="Fill-4"></path>
                    <polygon id="Fill-1" points="175.926667 130.373873 72.222963 48.7789367 72.222963 271.826114 124.074815 289.854886 124.074815 171.171342 227.774815 252.766278 226.16 20.7992911 175.926667 2.74826582"></polygon>
                </g>
            </g>
        </g>
    </g>
</svg>