<?xml version="1.0" encoding="UTF-8" standalone="no"?>
<svg width="101px" height="101px" viewBox="0 0 101 101" version="1.1" xmlns="http://www.w3.org/2000/svg" xmlns:xlink="http://www.w3.org/1999/xlink">
    <!-- Generator: Sketch 3.7.2 (28276) - http://www.bohemiancoding.com/sketch -->
    <title>logo</title>
    <desc>Created with Sketch.</desc>
    <defs></defs>
    <g id="Page-1" stroke="none" stroke-width="1" fill="none" fill-rule="evenodd">
        <g id="logo">
            <polygon id="Shape" fill="#EF3F3F" points="0 0 101 0 101 101 0 101"></polygon>
            <path d="M40.2630508,40.2002825 C39.9652686,40.396712 39.6068717,40.4797305 39.2530508,40.4342373 L37.4555932,40.4342373 C37.0965661,40.475527 36.7342026,40.3929886 36.4284746,40.2002825 C36.2159096,39.9092925 36.1239185,39.5474609 36.1716949,39.1902825 L36.1716949,35.8521469 L32.2686441,35.8521469 L32.2686441,39.7951412 C32.2686441,42.3096798 33.6000942,43.5669492 36.2629944,43.5669492 L40.4228249,43.5669492 C43.1085499,43.5669492 44.4514124,42.3096798 44.4514124,39.7951412 L44.4514124,32.080339 C44.4514124,29.5658004 43.137081,28.3085311 40.5084181,28.3085311 L37.37,28.3085311 C37.0109729,28.3498208 36.6486094,28.2672824 36.3428814,28.0745763 C36.1303164,27.7835863 36.0383253,27.4217547 36.0861017,27.0645763 L36.0861017,21.1129944 C36.0389232,20.7558509 36.1308584,20.3942391 36.3428814,20.1029944 C36.6489618,19.9111393 37.0110239,19.8286696 37.37,19.8690395 L39.1674576,19.8690395 C39.5264337,19.8286696 39.8884959,19.9111393 40.1945763,20.1029944 C40.4086116,20.3934208 40.5026089,20.7551059 40.4570621,21.1129944 L40.4570621,24.4568362 L44.360113,24.4568362 L44.360113,20.5024294 C44.360113,17.9878908 43.0286629,16.7306215 40.3657627,16.7306215 L36.1716949,16.7306215 C33.5087947,16.7306215 32.1773446,17.9878908 32.1773446,20.5024294 L32.1773446,27.5781356 C32.1811488,30.1154991 33.4821657,31.3841808 36.0803955,31.3841808 L39.2530508,31.3841808 C39.606846,31.3392003 39.9650663,31.4221779 40.2630508,31.6181356 C40.4663489,31.9154118 40.5555038,32.2760835 40.5141243,32.6338418 L40.5141243,39.1902825 C40.5540986,39.5461538 40.4650054,39.9045517 40.2630508,40.2002825 L40.2630508,40.2002825 Z" id="Shape" fill="#FFFFFF"></path>
            <path d="M60.4858757,20.0744633 L62.9167232,34.2372881 L58.2433333,34.2372881 L60.4858757,20.0744633 Z M68.4175141,43.5612429 L63.3161582,16.7420339 L57.6898305,16.7420339 L52.9308475,43.5612429 L56.7882486,43.5612429 L57.7754237,37.3471751 L63.4359887,37.3471751 L64.480226,43.5669492 L68.3832768,43.5669492 L68.4175141,43.5612429 Z" id="Shape" fill="#FFFFFF"></path>
            <path d="M44.6967797,52.6512429 C44.6967797,50.1367043 43.3653296,48.879435 40.7024294,48.879435 L36.1374576,48.879435 C33.4745574,48.879435 32.1431073,50.1367043 32.1431073,52.6512429 L32.1431073,71.9382486 C32.1431073,74.4832203 33.4745574,75.7557062 36.1374576,75.7557062 L40.7024294,75.7557062 C43.3653296,75.7557062 44.6967797,74.4832203 44.6967797,71.9382486 L44.6967797,61.9124294 L38.6538983,61.9124294 L38.6538983,64.9138983 L40.799435,64.9138983 L40.799435,71.470339 C40.8360826,71.8274884 40.7339229,72.1850475 40.5141243,72.4689266 C40.2083963,72.6616327 39.8460327,72.744171 39.4870056,72.7028814 L37.3243503,72.7028814 C36.9653232,72.744171 36.6029597,72.6616327 36.2972316,72.4689266 C36.0861052,72.1794359 35.9941871,71.8199337 36.040452,71.4646328 L36.040452,53.1648023 C35.9926756,52.8076238 36.0846667,52.4457922 36.2972316,52.1548023 C36.6031367,51.9625233 36.9653486,51.8800195 37.3243503,51.9208475 L39.5098305,51.9208475 C39.8688322,51.8800195 40.2310441,51.9625233 40.5369492,52.1548023 C40.7495141,52.4457922 40.8415052,52.8076238 40.7937288,53.1648023 L40.7937288,56.7254802 L44.6967797,56.7254802 L44.6967797,52.6512429 L44.6967797,52.6512429 Z" id="Shape" fill="#FFFFFF"></path>
            <polygon id="Shape" fill="#FFFFFF" points="58.9737288 63.4131638 65.1478531 63.4131638 65.1478531 60.2861582 58.9737288 60.2861582 58.9737288 52.0121469 66.4317514 52.0121469 66.4317514 48.879435 55.070678 48.879435 55.070678 75.6986441 66.7284746 75.6986441 66.7284746 72.5830508 58.9680226 72.5830508 58.9680226 63.4131638"></polygon>
            <polygon id="Shape" fill="#FFFFFF" points="32.3770621 80.029661 66.6714124 80.029661 66.6714124 83.4533898 32.3770621 83.4533898"></polygon>
        </g>
    </g>
</svg>